<svg width="250" height="250" viewBox="0 0 250 250" fill="none" xmlns="http://www.w3.org/2000/svg">
<path d="M235.846 127.353C237.408 125.791 237.408 123.259 235.846 121.697C234.284 120.134 231.751 120.134 230.189 121.697L235.846 127.353ZM174.189 177.697C172.627 179.259 172.627 181.791 174.189 183.353C175.751 184.916 178.284 184.916 179.846 183.353L174.189 177.697ZM221.789 130.097C220.227 131.659 220.227 134.191 221.789 135.753C223.351 137.316 225.884 137.316 227.446 135.753L221.789 130.097ZM216.246 146.953C217.808 145.391 217.808 142.859 216.246 141.297C214.684 139.734 212.151 139.734 210.589 141.297L216.246 146.953ZM193.789 158.097C192.227 159.659 192.227 162.191 193.789 163.753C195.351 165.316 197.884 165.316 199.446 163.753L193.789 158.097ZM188.246 174.953C189.808 173.391 189.808 170.859 188.246 169.297C186.684 167.734 184.151 167.734 182.589 169.297L188.246 174.953ZM230.189 121.697L221.789 130.097L227.446 135.753L235.846 127.353L230.189 121.697ZM210.589 141.297L193.789 158.097L199.446 163.753L216.246 146.953L210.589 141.297ZM182.589 169.297L174.189 177.697L179.846 183.353L188.246 174.953L182.589 169.297Z" fill="black"/>
<path d="M103.757 106.832C94.0054 116.584 88.5268 129.81 88.5269 143.601C88.5269 157.393 94.0054 170.619 103.757 180.371C113.509 190.123 126.736 195.601 140.527 195.601C154.318 195.601 167.545 190.123 177.296 180.371" stroke="black" stroke-width="8"/>
<path d="M102.488 108.101L114.988 95.6013" stroke="black" stroke-width="8" stroke-linecap="round"/>
<path d="M144.988 149.712L157.488 137.212" stroke="black" stroke-width="8" stroke-linecap="round"/>
<path d="M225.147 107.329C226.709 105.766 226.709 103.234 225.147 101.672C223.585 100.11 221.052 100.11 219.49 101.672L225.147 107.329ZM161.778 159.384C160.216 160.946 160.216 163.479 161.778 165.041C163.34 166.603 165.873 166.603 167.435 165.041L161.778 159.384ZM200.253 120.909C198.691 122.471 198.691 125.004 200.253 126.566C201.815 128.128 204.348 128.128 205.91 126.566L200.253 120.909ZM186.672 145.803C188.234 144.241 188.234 141.709 186.672 140.146C185.11 138.584 182.577 138.584 181.015 140.146L186.672 145.803ZM219.49 101.672L200.253 120.909L205.91 126.566L225.147 107.329L219.49 101.672ZM181.015 140.146L161.778 159.384L167.435 165.041L186.672 145.803L181.015 140.146Z" fill="black"/>
<path d="M120.733 118.079C114.892 123.919 111.611 131.84 111.611 140.099C111.611 148.359 114.892 156.28 120.733 162.12C126.573 167.96 134.494 171.241 142.753 171.241C151.012 171.241 158.933 167.96 164.774 162.12" stroke="black" stroke-width="8"/>
<path d="M119.571 119.24L127.057 111.754" stroke="black" stroke-width="8" stroke-linecap="round"/>
<path d="M38.8007 134.672C37.2386 136.234 37.2386 138.766 38.8007 140.328C40.3628 141.891 42.8955 141.891 44.4576 140.328L38.8007 134.672ZM100.816 83.9695C102.378 82.4074 102.378 79.8748 100.816 78.3127C99.2543 76.7506 96.7216 76.7506 95.1595 78.3127L100.816 83.9695ZM51.5024 133.284C53.0645 131.721 53.0645 129.189 51.5024 127.627C49.9403 126.065 47.4077 126.065 45.8456 127.627L51.5024 133.284ZM59.9353 113.537C58.3732 115.099 58.3732 117.632 59.9353 119.194C61.4974 120.756 64.03 120.756 65.5921 119.194L59.9353 113.537ZM79.6818 105.104C81.2439 103.542 81.2439 101.009 79.6818 99.4472C78.1197 97.8852 75.5871 97.8852 74.025 99.4473L79.6818 105.104ZM88.1147 85.3575C86.5526 86.9196 86.5526 89.4523 88.1147 91.0144C89.6768 92.5765 92.2094 92.5765 93.7715 91.0144L88.1147 85.3575ZM44.4576 140.328L51.5024 133.284L45.8456 127.627L38.8007 134.672L44.4576 140.328ZM65.5921 119.194L79.6818 105.104L74.025 99.4473L59.9353 113.537L65.5921 119.194ZM93.7715 91.0144L100.816 83.9695L95.1595 78.3127L88.1147 85.3575L93.7715 91.0144Z" fill="black"/>
<path d="M141.862 125.274C147.702 119.434 150.983 111.513 150.983 103.254C150.983 94.9946 147.702 87.0736 141.862 81.2334C136.022 75.3932 128.101 72.1122 119.841 72.1122C111.582 72.1122 103.661 75.3932 97.8208 81.2334" stroke="black" stroke-width="8"/>
<path d="M143.023 124.113L135.537 131.599" stroke="black" stroke-width="8" stroke-linecap="round"/>
<path d="M10.0835 132C8.52137 133.562 8.52137 136.094 10.0835 137.657C11.6456 139.219 14.1782 139.219 15.7403 137.657L10.0835 132ZM85.7403 67.6566C87.3024 66.0945 87.3024 63.5618 85.7403 61.9997C84.1782 60.4376 81.6455 60.4376 80.0834 61.9997L85.7403 67.6566ZM39.389 114.008C40.9511 112.446 40.9511 109.913 39.389 108.351C37.8269 106.789 35.2942 106.789 33.7321 108.351L39.389 114.008ZM56.4348 85.6484C54.8727 87.2105 54.8727 89.7431 56.4348 91.3052C57.9969 92.8673 60.5296 92.8673 62.0917 91.3052L56.4348 85.6484ZM15.7403 137.657L39.389 114.008L33.7321 108.351L10.0835 132L15.7403 137.657ZM62.0917 91.3052L85.7403 67.6566L80.0834 61.9997L56.4348 85.6484L62.0917 91.3052Z" fill="black"/>
<path d="M156.172 138.521C165.924 128.77 171.402 115.543 171.402 101.752C171.402 87.9606 165.924 74.7342 156.172 64.9823C146.42 55.2304 133.193 49.7519 119.402 49.7519C105.611 49.7519 92.3846 55.2304 82.6327 64.9823" stroke="black" stroke-width="8"/>
</svg>
