<?xml version="1.0" standalone="no"?>
<!DOCTYPE svg PUBLIC "-//W3C//DTD SVG 20010904//EN"
 "http://www.w3.org/TR/2001/REC-SVG-20010904/DTD/svg10.dtd">
<svg version="1.0" xmlns="http://www.w3.org/2000/svg"
 width="700.000000pt" height="700.000000pt" viewBox="0 0 700.000000 700.000000"
 preserveAspectRatio="xMidYMid meet">
<metadata>
Created by potrace 1.14, written by Peter Selinger 2001-2017
</metadata>
<g transform="translate(0.000000,700.000000) scale(0.100000,-0.100000)"
fill="#000000" stroke="none">
<path d="M3195 5713 c-31 -4 -185 -29 -220 -37 -68 -14 -234 -76 -317 -117
-108 -53 -184 -100 -273 -167 -68 -52 -806 -785 -823 -819 -7 -12 -12 -38 -12
-58 0 -64 72 -116 138 -100 18 4 161 139 417 393 215 213 399 394 411 403 433
333 1022 375 1489 108 163 -93 332 -242 418 -369 17 -25 33 -47 36 -50 10 -8
39 -60 82 -143 139 -272 180 -612 109 -912 -39 -168 -108 -321 -214 -475 -29
-42 -141 -165 -259 -285 -115 -115 -213 -220 -218 -233 -24 -60 3 -123 63
-147 33 -13 43 -13 71 -1 28 11 365 336 440 424 188 220 334 548 364 818 12
107 8 381 -6 459 -126 678 -617 1171 -1284 1291 -84 15 -335 25 -412 17z"/>
<path d="M3318 5095 c-2 -2 -30 -5 -63 -9 -180 -17 -369 -94 -508 -206 -91
-74 -290 -277 -304 -310 -20 -48 -2 -103 43 -130 27 -17 45 -21 76 -17 37 5
57 21 182 144 162 160 190 182 289 228 446 206 952 -44 1063 -524 40 -172 13
-363 -73 -521 -44 -82 -82 -129 -212 -260 -57 -58 -110 -119 -117 -136 -38
-90 59 -182 146 -139 35 18 246 229 299 299 90 120 155 271 186 426 14 72 15
262 1 335 -79 441 -455 785 -886 811 -47 3 -93 7 -102 8 -9 2 -18 3 -20 1z"/>
<path d="M3191 4432 c-28 -4 -341 -309 -445 -432 -206 -245 -335 -541 -371
-850 -7 -64 -7 -277 0 -335 84 -670 537 -1192 1177 -1355 199 -52 465 -60 669
-22 250 47 511 168 704 326 60 49 341 331 362 363 32 49 9 127 -45 152 -27 13
-82 14 -100 2 -8 -5 -89 -82 -180 -172 -190 -187 -260 -242 -399 -316 -96 -50
-241 -107 -299 -116 -16 -3 -47 -10 -69 -16 -51 -14 -200 -27 -285 -25 -458 9
-888 257 -1123 646 -95 158 -137 274 -183 503 -10 50 -13 296 -4 355 31 212
85 368 183 530 70 114 126 180 331 387 109 111 203 208 208 215 12 20 9 76 -6
106 -21 40 -72 62 -125 54z"/>
<path d="M2105 4236 c-44 -20 -455 -438 -456 -464 -1 -12 -2 -28 -3 -34 -1 -7
2 -22 7 -33 28 -60 91 -88 145 -66 43 18 450 430 461 466 12 44 -7 95 -48 122
-39 26 -63 28 -106 9z"/>
<path d="M6192 4177 c-42 -15 -588 -558 -608 -604 -36 -84 61 -177 146 -139
27 12 574 556 591 587 28 54 10 116 -43 149 -38 23 -41 23 -86 7z"/>
<path d="M969 3982 c-37 -24 -694 -684 -707 -709 -47 -89 59 -195 147 -148 14
7 180 168 368 357 254 254 345 352 353 377 11 39 -4 85 -38 115 -28 25 -93 29
-123 8z"/>
<path d="M3504 3967 c-40 -23 -225 -212 -285 -291 -201 -263 -257 -597 -154
-911 84 -254 288 -478 537 -588 240 -106 544 -108 783 -4 150 65 218 121 550
453 341 341 342 343 311 417 -10 24 -27 42 -50 54 -69 32 -81 23 -416 -310
-168 -167 -327 -318 -353 -336 -260 -177 -612 -176 -861 3 -278 200 -392 527
-294 846 44 142 93 216 252 378 67 68 127 136 135 151 44 90 -67 189 -155 138z"/>
<path d="M6467 3605 c-32 -22 -261 -249 -278 -276 -23 -37 1 -129 38 -144 49
-20 71 -22 99 -10 32 13 303 280 305 299 0 6 2 20 4 30 5 29 -20 82 -47 100
-39 26 -85 26 -121 1z"/>
<path d="M1295 3432 c-62 -46 -223 -214 -234 -244 -30 -80 39 -159 126 -145
30 5 58 27 151 119 106 105 136 144 135 176 -2 43 -6 55 -30 82 -42 47 -96 51
-148 12z"/>
<path d="M5942 3067 c-47 -17 -528 -499 -543 -544 -26 -80 64 -164 143 -134
41 15 535 515 542 548 13 59 -11 106 -67 128 -20 8 -38 15 -40 14 -1 0 -17 -5
-35 -12z"/>
</g>
</svg>
